<svg width="25" height="24" viewBox="0 0 44 45" fill="none" xmlns="http://www.w3.org/2000/svg">
<g id="Frame" clip-path="url(#clip0_322_1434)">
<path id="Vector" d="M16.5001 6C16.8288 5.99991 17.1514 6.08818 17.4343 6.25558C17.7172 6.42297 17.9498 6.66334 18.1079 6.9515L18.2014 7.15317L21.8681 16.3198C22.0158 16.6886 22.0396 17.0954 21.9362 17.479C21.8327 17.8625 21.6074 18.202 21.2942 18.4465L21.1109 18.5712L18.0419 20.4118L18.1574 20.6007C19.6181 22.9198 21.5803 24.8819 23.8994 26.3427L24.0864 26.4563L25.9289 23.391C26.1331 23.0502 26.4425 22.7849 26.8105 22.6351C27.1785 22.4853 27.5852 22.4591 27.9694 22.5605L28.1803 22.632L37.3469 26.2987C37.6521 26.4204 37.919 26.622 38.1196 26.8823C38.3203 27.1426 38.4472 27.452 38.4873 27.7782L38.5001 28V35.3333C38.5001 38.3712 36.0379 40.8333 32.8901 40.8297C17.1619 39.8745 4.62375 27.3363 3.66675 11.5C3.66667 10.0971 4.20268 8.74722 5.1651 7.72652C6.12753 6.70582 7.44361 6.09147 8.84408 6.00917L9.16675 6H16.5001Z" fill="black"/>
</g>
<defs>
<clipPath id="clip0_322_1434">
<rect width="44" height="44" fill="white" transform="translate(0 0.5)"/>
</clipPath>
</defs>
</svg>
