<svg width="25" height="24" viewBox="0 0 44 45" fill="none" xmlns="http://www.w3.org/2000/svg">
<g id="Frame" clip-path="url(#clip0_322_1429)">
<path id="Vector" d="M33.6674 8.99878C36.6967 12.0277 38.4292 16.116 38.4987 20.3992C38.5681 24.6824 36.9691 28.8248 34.0396 31.9503L33.6674 32.3353L25.8886 40.1123C24.9016 41.0987 23.5765 41.673 22.1819 41.719C20.7872 41.7649 19.4272 41.2791 18.3774 40.3598L18.1134 40.1123L10.3328 32.3335C7.2384 29.2391 5.5 25.0422 5.5 20.6661C5.5 16.29 7.2384 12.0932 10.3328 8.99878C13.4271 5.90441 17.624 4.16602 22.0001 4.16602C26.3762 4.16602 30.5731 5.90441 33.6674 8.99878ZM22.0001 15.1661C21.2778 15.1661 20.5626 15.3084 19.8953 15.5848C19.2281 15.8612 18.6217 16.2663 18.111 16.777C17.6003 17.2878 17.1952 17.8941 16.9188 18.5614C16.6424 19.2286 16.5001 19.9438 16.5001 20.6661C16.5001 21.3884 16.6424 22.1036 16.9188 22.7709C17.1952 23.4382 17.6003 24.0445 18.111 24.5552C18.6217 25.0659 19.2281 25.4711 19.8953 25.7475C20.5626 26.0239 21.2778 26.1661 22.0001 26.1661C23.4588 26.1661 24.8577 25.5867 25.8892 24.5552C26.9206 23.5238 27.5001 22.1248 27.5001 20.6661C27.5001 19.2074 26.9206 17.8085 25.8892 16.777C24.8577 15.7456 23.4588 15.1661 22.0001 15.1661Z" fill="black"/>
</g>
<defs>
<clipPath id="clip0_322_1429">
<rect width="44" height="44" fill="white" transform="translate(0 0.5)"/>
</clipPath>
</defs>
</svg>
