<svg width="25" height="24" viewBox="0 0 44 45" fill="none" xmlns="http://www.w3.org/2000/svg">
<g id="Frame" clip-path="url(#clip0_322_1439)">
<path id="Vector" d="M40.3332 14.3145V31.667C40.3332 33.0698 39.7972 34.4197 38.8348 35.4404C37.8724 36.4611 36.5563 37.0755 35.1558 37.1578L34.8332 37.167H9.1665C7.76362 37.167 6.41373 36.631 5.39303 35.6686C4.37232 34.7062 3.75797 33.3901 3.67567 31.9896L3.6665 31.667V14.3145L20.9823 25.859L21.195 25.98C21.4456 26.1024 21.7209 26.1661 21.9998 26.1661C22.2788 26.1661 22.554 26.1024 22.8047 25.98L23.0173 25.859L40.3332 14.3145Z" fill="black"/>
<path id="Vector_2" d="M34.8333 7.83398C36.8133 7.83398 38.5494 8.87898 39.5174 10.4502L21.9999 22.1285L4.48242 10.4502C4.94209 9.70356 5.57365 9.07772 6.32439 8.62485C7.07513 8.17199 7.92328 7.90522 8.79809 7.84682L9.16659 7.83398H34.8333Z" fill="black"/>
</g>
<defs>
<clipPath id="clip0_322_1439">
<rect width="44" height="44" fill="white" transform="translate(0 0.5)"/>
</clipPath>
</defs>
</svg>
