<svg width="25" height="24" viewBox="0 0 25 24" fill="none" xmlns="http://www.w3.org/2000/svg">
<g id="Frame" clip-path="url(#clip0_265_3417)">
<path id="Vector" d="M18.5984 4.63606C20.2508 6.28819 21.1958 8.51817 21.2337 10.8545C21.2715 13.1908 20.3993 15.4502 18.8014 17.1551L18.5984 17.3651L14.3554 21.6071C13.8171 22.1451 13.0943 22.4584 12.3336 22.4834C11.5729 22.5085 10.8311 22.2435 10.2584 21.7421L10.1144 21.6071L5.87043 17.3641C4.18259 15.6762 3.23438 13.387 3.23438 11.0001C3.23438 8.61309 4.18259 6.32389 5.87043 4.63606C7.55827 2.94822 9.84747 2 12.2344 2C14.6214 2 16.9106 2.94822 18.5984 4.63606ZM12.2344 8.00006C11.8405 8.00006 11.4504 8.07765 11.0864 8.22842C10.7224 8.37918 10.3917 8.60016 10.1131 8.87873C9.83453 9.15731 9.61356 9.48803 9.46279 9.85201C9.31203 10.216 9.23443 10.6061 9.23443 11.0001C9.23443 11.394 9.31203 11.7841 9.46279 12.1481C9.61356 12.5121 9.83453 12.8428 10.1131 13.1214C10.3917 13.4 10.7224 13.6209 11.0864 13.7717C11.4504 13.9225 11.8405 14.0001 12.2344 14.0001C13.0301 14.0001 13.7931 13.684 14.3558 13.1214C14.9184 12.5588 15.2344 11.7957 15.2344 11.0001C15.2344 10.2044 14.9184 9.44134 14.3558 8.87873C13.7931 8.31613 13.0301 8.00006 12.2344 8.00006Z" fill="#E7E7E7"/>
</g>
<defs>
<clipPath id="clip0_265_3417">
<rect width="24" height="24" fill="white" transform="translate(0.234375)"/>
</clipPath>
</defs>
</svg>
