<svg width="17" height="17" viewBox="0 0 17 17" fill="none" xmlns="http://www.w3.org/2000/svg">
<g id="icon / jam-icons / outline &#38; logos / chevron-down">
<path id="Vector" d="M8.54775 9.37608L11.8478 6.07608C11.9093 6.01241 11.9828 5.96162 12.0642 5.92668C12.1455 5.89174 12.233 5.87335 12.3215 5.87258C12.41 5.87181 12.4978 5.88868 12.5797 5.9222C12.6617 5.95572 12.7361 6.00523 12.7987 6.06782C12.8613 6.13042 12.9108 6.20485 12.9443 6.28678C12.9778 6.36871 12.9947 6.4565 12.9939 6.54502C12.9932 6.63354 12.9748 6.72102 12.9398 6.80235C12.9049 6.88369 12.8541 6.95725 12.7904 7.01875L9.01909 10.7901C8.89407 10.9151 8.72453 10.9853 8.54775 10.9853C8.37098 10.9853 8.20144 10.9151 8.07642 10.7901L4.30509 7.01875C4.24141 6.95725 4.19063 6.88369 4.15569 6.80235C4.12075 6.72102 4.10236 6.63354 4.10159 6.54502C4.10082 6.4565 4.11769 6.36871 4.15121 6.28678C4.18473 6.20485 4.23423 6.13042 4.29682 6.06782C4.35942 6.00523 4.43385 5.95572 4.51579 5.9222C4.59772 5.88868 4.6855 5.87181 4.77402 5.87258C4.86254 5.87335 4.95002 5.89174 5.03136 5.92668C5.11269 5.96162 5.18626 6.01241 5.24775 6.07608L8.54775 9.37608Z" fill="#292929"/>
</g>
</svg>
