<svg width="40" height="40" viewBox="0 0 40 40" fill="none" xmlns="http://www.w3.org/2000/svg">
<g id="Frame" clip-path="url(#clip0_265_3374)">
<path id="Vector" d="M5.83301 15.8334C5.83301 16.2754 6.0086 16.6994 6.32116 17.0119C6.63372 17.3245 7.05765 17.5001 7.49967 17.5001C7.9417 17.5001 8.36562 17.3245 8.67819 17.0119C8.99075 16.6994 9.16634 16.2754 9.16634 15.8334C9.16634 15.3914 8.99075 14.9675 8.67819 14.6549C8.36562 14.3423 7.9417 14.1667 7.49967 14.1667C7.05765 14.1667 6.63372 14.3423 6.32116 14.6549C6.0086 14.9675 5.83301 15.3914 5.83301 15.8334Z" stroke="#9A0883" stroke-opacity="0.82" stroke-width="2" stroke-linecap="round" stroke-linejoin="round"/>
<path id="Vector_2" d="M14.167 7.49992C14.167 7.94195 14.3426 8.36587 14.6551 8.67843C14.9677 8.99099 15.3916 9.16659 15.8337 9.16659C16.2757 9.16659 16.6996 8.99099 17.0122 8.67843C17.3247 8.36587 17.5003 7.94195 17.5003 7.49992C17.5003 7.05789 17.3247 6.63397 17.0122 6.32141C16.6996 6.00885 16.2757 5.83325 15.8337 5.83325C15.3916 5.83325 14.9677 6.00885 14.6551 6.32141C14.3426 6.63397 14.167 7.05789 14.167 7.49992Z" stroke="#9A0883" stroke-opacity="0.82" stroke-width="2" stroke-linecap="round" stroke-linejoin="round"/>
<path id="Vector_3" d="M14.167 24.1667C14.167 24.6087 14.3426 25.0326 14.6551 25.3452C14.9677 25.6577 15.3916 25.8333 15.8337 25.8333C16.2757 25.8333 16.6996 25.6577 17.0122 25.3452C17.3247 25.0326 17.5003 24.6087 17.5003 24.1667C17.5003 23.7246 17.3247 23.3007 17.0122 22.9882C16.6996 22.6756 16.2757 22.5 15.8337 22.5C15.3916 22.5 14.9677 22.6756 14.6551 22.9882C14.3426 23.3007 14.167 23.7246 14.167 24.1667Z" stroke="#9A0883" stroke-opacity="0.82" stroke-width="2" stroke-linecap="round" stroke-linejoin="round"/>
<path id="Vector_4" d="M5.83301 32.4999C5.83301 32.9419 6.0086 33.3659 6.32116 33.6784C6.63372 33.991 7.05765 34.1666 7.49967 34.1666C7.9417 34.1666 8.36562 33.991 8.67819 33.6784C8.99075 33.3659 9.16634 32.9419 9.16634 32.4999C9.16634 32.0579 8.99075 31.634 8.67819 31.3214C8.36562 31.0088 7.9417 30.8333 7.49967 30.8333C7.05765 30.8333 6.63372 31.0088 6.32116 31.3214C6.0086 31.634 5.83301 32.0579 5.83301 32.4999Z" stroke="#9A0883" stroke-opacity="0.82" stroke-width="2" stroke-linecap="round" stroke-linejoin="round"/>
<path id="Vector_5" d="M22.5 15.8334C22.5 16.2754 22.6756 16.6994 22.9882 17.0119C23.3007 17.3245 23.7246 17.5001 24.1667 17.5001C24.6087 17.5001 25.0326 17.3245 25.3452 17.0119C25.6577 16.6994 25.8333 16.2754 25.8333 15.8334C25.8333 15.3914 25.6577 14.9675 25.3452 14.6549C25.0326 14.3423 24.6087 14.1667 24.1667 14.1667C23.7246 14.1667 23.3007 14.3423 22.9882 14.6549C22.6756 14.9675 22.5 15.3914 22.5 15.8334Z" stroke="#9A0883" stroke-opacity="0.82" stroke-width="2" stroke-linecap="round" stroke-linejoin="round"/>
<path id="Vector_6" d="M30.833 7.49992C30.833 7.94195 31.0086 8.36587 31.3212 8.67843C31.6337 8.99099 32.0576 9.16659 32.4997 9.16659C32.9417 9.16659 33.3656 8.99099 33.6782 8.67843C33.9907 8.36587 34.1663 7.94195 34.1663 7.49992C34.1663 7.05789 33.9907 6.63397 33.6782 6.32141C33.3656 6.00885 32.9417 5.83325 32.4997 5.83325C32.0576 5.83325 31.6337 6.00885 31.3212 6.32141C31.0086 6.63397 30.833 7.05789 30.833 7.49992Z" stroke="#9A0883" stroke-opacity="0.82" stroke-width="2" stroke-linecap="round" stroke-linejoin="round"/>
<path id="Vector_7" d="M22.5 32.4999C22.5 32.9419 22.6756 33.3659 22.9882 33.6784C23.3007 33.991 23.7246 34.1666 24.1667 34.1666C24.6087 34.1666 25.0326 33.991 25.3452 33.6784C25.6577 33.3659 25.8333 32.9419 25.8333 32.4999C25.8333 32.0579 25.6577 31.634 25.3452 31.3214C25.0326 31.0088 24.6087 30.8333 24.1667 30.8333C23.7246 30.8333 23.3007 31.0088 22.9882 31.3214C22.6756 31.634 22.5 32.0579 22.5 32.4999Z" stroke="#9A0883" stroke-opacity="0.82" stroke-width="2" stroke-linecap="round" stroke-linejoin="round"/>
<path id="Vector_8" d="M30.833 24.1667C30.833 24.6087 31.0086 25.0326 31.3212 25.3452C31.6337 25.6577 32.0576 25.8333 32.4997 25.8333C32.9417 25.8333 33.3656 25.6577 33.6782 25.3452C33.9907 25.0326 34.1663 24.6087 34.1663 24.1667C34.1663 23.7246 33.9907 23.3007 33.6782 22.9882C33.3656 22.6756 32.9417 22.5 32.4997 22.5C32.0576 22.5 31.6337 22.6756 31.3212 22.9882C31.0086 23.3007 30.833 23.7246 30.833 24.1667Z" stroke="#9A0883" stroke-opacity="0.82" stroke-width="2" stroke-linecap="round" stroke-linejoin="round"/>
</g>
<defs>
<clipPath id="clip0_265_3374">
<rect width="40" height="40" fill="white"/>
</clipPath>
</defs>
</svg>
