<svg width="27" height="26" viewBox="0 0 27 26" fill="none" xmlns="http://www.w3.org/2000/svg">
<g id="Frame" clip-path="url(#clip0_265_3425)">
<path id="Vector" d="M24.068 8.16296V18.4167C24.0681 19.2457 23.7513 20.0434 23.1826 20.6465C22.6139 21.2496 21.8362 21.6127 21.0087 21.6613L20.818 21.6667H5.65137C4.82239 21.6668 4.02473 21.35 3.42158 20.7813C2.81844 20.2126 2.45542 19.4349 2.40678 18.6074L2.40137 18.4167V8.16296L12.6334 14.9847L12.7591 15.0562C12.9072 15.1286 13.0699 15.1662 13.2347 15.1662C13.3995 15.1662 13.5622 15.1286 13.7103 15.0562L13.8359 14.9847L24.068 8.16296Z" fill="#E7E7E7"/>
<path id="Vector_2" d="M20.8174 4.33337C21.9874 4.33337 23.0133 4.95087 23.5853 5.87929L13.2341 12.7801L2.88281 5.87929C3.15444 5.43812 3.52763 5.06831 3.97125 4.80071C4.41487 4.5331 4.91605 4.37547 5.43298 4.34096L5.65073 4.33337H20.8174Z" fill="#E7E7E7"/>
</g>
<defs>
<clipPath id="clip0_265_3425">
<rect width="26" height="26" fill="white" transform="translate(0.234375)"/>
</clipPath>
</defs>
</svg>
