<svg width="21" height="20" viewBox="0 0 21 20" fill="none" xmlns="http://www.w3.org/2000/svg">
<path id="Vector" d="M7.6028 0.00109867C7.79151 0.00104595 7.97678 0.051729 8.13919 0.147842C8.3016 0.243954 8.43518 0.381961 8.52595 0.547414L8.57964 0.663204L10.6849 5.92636C10.7697 6.13811 10.7834 6.37167 10.724 6.59188C10.6646 6.8121 10.5352 7.00706 10.3554 7.14741L10.2502 7.21899L8.48806 8.27583L8.55438 8.38425C9.39307 9.71583 10.5196 10.8424 11.8512 11.6811L11.9586 11.7464L13.0165 9.98636C13.1337 9.79066 13.3114 9.63834 13.5227 9.55234C13.734 9.46634 13.9675 9.45131 14.1881 9.50952L14.3091 9.55057L19.5723 11.6558C19.7475 11.7257 19.9008 11.8415 20.0159 11.9909C20.1311 12.1404 20.204 12.318 20.227 12.5053L20.2344 12.6327V16.8432C20.2344 18.5874 18.8207 20.0011 17.0133 19.999C7.9828 19.4506 0.783849 12.2516 0.234375 3.15899C0.23433 2.35351 0.542086 1.57845 1.09467 0.992403C1.64726 0.406354 2.40291 0.0536171 3.20701 0.00636195L3.39227 0.00109867H7.6028Z" fill="#E7E7E7"/>
</svg>
